<?xml version="1.0" encoding="UTF-8"?>
<!DOCTYPE svg PUBLIC "-//W3C//DTD SVG 1.1//EN" "http://www.w3.org/Graphics/SVG/1.1/DTD/svg11.dtd">
<!-- Creator: CorelDRAW -->
<svg xmlns="http://www.w3.org/2000/svg" xml:space="preserve" width="28.4609mm" height="25.208mm" version="1.1" style="shape-rendering:geometricPrecision; text-rendering:geometricPrecision; image-rendering:optimizeQuality; fill-rule:evenodd; clip-rule:evenodd"
viewBox="0 0 710.94 629.68"
 xmlns:xlink="http://www.w3.org/1999/xlink"
 xmlns:xodm="http://www.corel.com/coreldraw/odm/2003">
 <defs>
  <style type="text/css">
   <![CDATA[
    .fil0 {fill:white;fill-rule:nonzero}
   ]]>
  </style>
 </defs>
 <g id="Layer_x0020_1">
  <metadata id="CorelCorpID_0Corel-Layer"/>
  <g>
   <path class="fil0" d="M-0 180.89l50.02 0 0 0 0.63 7.89 2.05 9.72 3.55 11.28 5.06 12.57 6.47 13.63 7.79 14.51 8.99 15.24 10.07 15.83 11.03 16.29 11.87 16.65 12.59 16.9 13.19 17.05 13.67 17.1 14.04 17.06 14.29 16.92 14.42 16.69 14.44 16.37 14.33 15.96 14.12 15.45 13.78 14.86 13.34 14.18 12.78 13.4 12.1 12.54 11.31 11.59 10.4 10.56 9.37 9.42 8.24 8.21 6.99 6.91 5.63 5.51 4.14 4.04 2.55 2.47 0.82 0.79 -34.59 36.14 -0.97 -0.93 -2.66 -2.58 -4.26 -4.15 -5.76 -5.64 -7.13 -7.05 -8.39 -8.36 -9.54 -9.59 -10.57 -10.73 -11.49 -11.78 -12.29 -12.75 -12.99 -13.63 -13.57 -14.42 -14.03 -15.13 -14.39 -15.75 -14.63 -16.29 -14.75 -16.73 -14.77 -17.1 -14.67 -17.38 -14.47 -17.58 -14.14 -17.69 -13.71 -17.73 -13.18 -17.69 -12.52 -17.57 -11.77 -17.38 -10.9 -17.13 -9.92 -16.83 -8.84 -16.48 -7.65 -16.12 -6.32 -15.76 -4.85 -15.45 -3.17 -15.24 -1.16 -15.12 0 0zm189.2 -180.89l0 50.02 0 0 -5.59 0.1 -5.74 0.3 -5.86 0.51 -5.96 0.73 -6.02 0.95 -6.06 1.19 -6.08 1.42 -6.06 1.65 -6.03 1.9 -5.97 2.14 -5.89 2.39 -5.78 2.64 -5.65 2.89 -5.5 3.14 -5.34 3.4 -5.16 3.65 -4.96 3.91 -4.75 4.18 -4.52 4.45 -4.29 4.73 -4.04 5.02 -3.78 5.32 -3.51 5.65 -3.23 5.99 -2.94 6.34 -2.62 6.72 -2.29 7.13 -1.93 7.55 -1.55 8 -1.15 8.47 -0.71 8.95 -0.24 9.46 -50.02 0 0.31 -12.06 0.92 -11.67 1.53 -11.26 2.1 -10.84 2.67 -10.43 3.21 -10.01 3.73 -9.58 4.23 -9.14 4.69 -8.7 5.13 -8.25 5.53 -7.8 5.9 -7.34 6.23 -6.88 6.53 -6.43 6.8 -5.99 7.03 -5.55 7.23 -5.12 7.4 -4.71 7.55 -4.31 7.66 -3.92 7.75 -3.54 7.82 -3.18 7.87 -2.82 7.89 -2.48 7.89 -2.15 7.86 -1.84 7.83 -1.53 7.77 -1.23 7.69 -0.94 7.6 -0.67 7.48 -0.39 7.35 -0.13 0 0zm148.22 82.66l31.95 38.49 -31.61 0.28 -0.15 -0.12 -0.7 -0.56 -1.22 -0.94 -1.71 -1.31 -2.16 -1.63 -2.62 -1.95 -3.02 -2.22 -3.41 -2.46 -3.79 -2.69 -4.14 -2.88 -4.45 -3.04 -4.75 -3.17 -5.03 -3.28 -5.27 -3.35 -5.5 -3.4 -5.7 -3.42 -5.87 -3.41 -6.02 -3.37 -6.14 -3.31 -6.23 -3.21 -6.3 -3.09 -6.34 -2.94 -6.34 -2.76 -6.31 -2.55 -6.26 -2.32 -6.17 -2.07 -6.04 -1.78 -5.87 -1.49 -5.67 -1.17 -5.42 -0.84 -5.13 -0.5 -4.82 -0.16 0 -50.02 8.12 0.27 8.09 0.79 8.03 1.24 7.98 1.64 7.92 2 7.85 2.32 7.78 2.6 7.69 2.85 7.6 3.07 7.49 3.26 7.37 3.41 7.23 3.55 7.08 3.65 6.91 3.72 6.72 3.76 6.52 3.79 6.29 3.78 6.04 3.74 5.78 3.68 5.49 3.58 5.19 3.46 4.86 3.32 4.51 3.14 4.13 2.93 3.75 2.71 3.33 2.45 2.89 2.15 2.45 1.85 1.95 1.49 1.46 1.13 0.93 0.73 0.4 0.32 -31.61 0.28zm31.95 38.49l-15.69 13.02 -15.92 -12.74 31.61 -0.28zm150.29 -121.15l0 50.02 0 0 -5.41 0.17 -5.64 0.52 -5.85 0.85 -6.03 1.18 -6.18 1.5 -6.29 1.79 -6.37 2.07 -6.43 2.32 -6.43 2.54 -6.43 2.75 -6.4 2.93 -6.34 3.07 -6.24 3.19 -6.13 3.29 -5.99 3.36 -5.82 3.39 -5.64 3.41 -5.42 3.38 -5.19 3.34 -4.94 3.26 -4.65 3.15 -4.35 3.02 -4.03 2.87 -3.68 2.67 -3.31 2.45 -2.93 2.21 -2.52 1.93 -2.08 1.62 -1.63 1.29 -1.16 0.93 -0.69 0.56 -0.1 0.09 -31.95 -38.49 0.43 -0.35 0.9 -0.73 1.42 -1.14 1.92 -1.52 2.39 -1.86 2.83 -2.17 3.26 -2.46 3.68 -2.72 4.06 -2.95 4.44 -3.15 4.8 -3.33 5.13 -3.48 5.44 -3.59 5.74 -3.69 6.02 -3.76 6.28 -3.8 6.53 -3.8 6.74 -3.78 6.96 -3.74 7.16 -3.66 7.33 -3.56 7.49 -3.42 7.64 -3.27 7.78 -3.08 7.9 -2.85 8.01 -2.6 8.12 -2.31 8.21 -1.99 8.31 -1.63 8.38 -1.22 8.45 -0.77 8.5 -0.27 0 0zm191.28 191.28l-50.02 0 0 0 -0.24 -10.69 -0.71 -10.1 -1.14 -9.53 -1.55 -8.98 -1.93 -8.45 -2.29 -7.94 -2.61 -7.44 -2.92 -6.97 -3.21 -6.53 -3.48 -6.11 -3.73 -5.72 -3.98 -5.35 -4.21 -5 -4.44 -4.67 -4.66 -4.36 -4.87 -4.05 -5.07 -3.76 -5.26 -3.48 -5.45 -3.2 -5.61 -2.94 -5.76 -2.67 -5.9 -2.41 -6.02 -2.16 -6.12 -1.91 -6.2 -1.66 -6.27 -1.42 -6.3 -1.18 -6.32 -0.95 -6.32 -0.73 -6.29 -0.51 -6.23 -0.3 -6.15 -0.09 0 -50.02 7.76 0.12 7.86 0.38 7.94 0.64 8.01 0.92 8.07 1.21 8.11 1.52 8.12 1.84 8.12 2.17 8.1 2.53 8.05 2.89 7.99 3.27 7.9 3.67 7.78 4.07 7.64 4.5 7.47 4.95 7.27 5.4 7.04 5.87 6.78 6.34 6.49 6.82 6.16 7.31 5.8 7.79 5.41 8.28 4.99 8.77 4.54 9.24 4.07 9.72 3.58 10.19 3.06 10.65 2.54 11.11 2 11.58 1.44 12.04 0.88 12.51 0.29 12.98 0 0zm-391.47 423.35l34.59 -36.14 -32.81 -1.55 0.91 -0.72 2.85 -2.28 4.63 -3.74 6.29 -5.12 7.82 -6.42 9.22 -7.65 10.49 -8.8 11.63 -9.86 12.65 -10.85 13.53 -11.76 14.29 -12.6 14.92 -13.35 15.42 -14.03 15.79 -14.63 16.03 -15.14 16.14 -15.58 16.12 -15.93 15.97 -16.2 15.69 -16.39 15.28 -16.5 14.74 -16.51 14.06 -16.44 13.25 -16.28 12.3 -16.02 11.22 -15.65 10.01 -15.17 8.66 -14.56 7.19 -13.8 5.61 -12.86 3.95 -11.72 2.28 -10.33 0.72 -8.76 50.02 0 -1.29 16.27 -3.56 16.28 -5.47 16.3 -7.14 16.42 -8.63 16.58 -9.96 16.77 -11.18 16.95 -12.26 17.11 -13.23 17.23 -14.07 17.3 -14.8 17.31 -15.4 17.26 -15.87 17.14 -16.23 16.95 -16.46 16.7 -16.57 16.37 -16.55 15.97 -16.4 15.49 -16.13 14.94 -15.73 14.31 -15.22 13.62 -14.56 12.83 -13.78 11.98 -12.88 11.05 -11.85 10.05 -10.7 8.97 -9.41 7.81 -8 6.57 -6.45 5.25 -4.79 3.86 -2.99 2.39 -1.09 0.87 -32.81 -1.55zm32.81 1.55l-17.08 13.51 -15.73 -15.06 32.81 1.55z"/>
  </g>
 </g>
</svg>
